Coordinates
version=1
nRows=30
nColumns=38
inDegrees=no

Units are S.I. units (second, meters, Newtons, ...)
If the header above contains a line with 'inDegrees', this indicates whether rotational values are in degrees (yes) or radians (no).

endheader
time	pelvis_tilt	pelvis_list	pelvis_rotation	pelvis_tx	pelvis_ty	pelvis_tz	hip_flexion_r	hip_adduction_r	hip_rotation_r	knee_angle_r	ankle_angle_r	subtalar_angle_r	mtp_angle_r	hip_flexion_l	hip_adduction_l	hip_rotation_l	knee_angle_l	ankle_angle_l	subtalar_angle_l	mtp_angle_l	lumbar_extension	lumbar_bending	lumbar_rotation	arm_flex_r	arm_add_r	arm_rot_r	elbow_flex_r	pro_sup_r	wrist_flex_r	wrist_dev_r	arm_flex_l	arm_add_l	arm_rot_l	elbow_flex_l	pro_sup_l	wrist_flex_l	wrist_dev_l
0.81	-0.48949	1.46909	-0.972745	0.769067	1.32342	0.95499	0.371123	-0.10301	-0.116613	1.01692	-0.26335	0	0	-0.165507	-0.0439299	-0.199437	0.26157	-0.219669	0	0	-0.18443	0.0852578	0.00192925	-0.187161	-0.304984	0.0778649	0.873678	1.5708	0	0	0.189158	-0.247174	0.458123	0.679882	1.5708	0	0
0.82	-0.517939	1.47218	-0.945893	0.769031	1.31545	0.954217	0.381013	-0.0973419	-0.107686	0.966897	-0.257803	0	0	-0.171999	-0.0454286	-0.199891	0.259695	-0.215383	0	0	-0.182926	0.0864049	-0.00198147	-0.181709	-0.306023	0.0828908	0.867543	1.5708	0	0	0.192807	-0.248748	0.448121	0.693104	1.5708	0	0
0.83	-0.549086	1.47639	-0.916851	0.768968	1.30742	0.953257	0.390246	-0.0920146	-0.0982824	0.914278	-0.252315	0	0	-0.17724	-0.0460768	-0.20074	0.258555	-0.211125	0	0	-0.180237	0.0869295	-0.00533568	-0.176457	-0.307358	0.0887165	0.861249	1.5708	0	0	0.195915	-0.250239	0.438513	0.706195	1.5708	0	0
0.84	-0.58558	1.48167	-0.882758	0.768863	1.2993	0.952072	0.398955	-0.08691	-0.0888441	0.859256	-0.245937	0	0	-0.181293	-0.0459671	-0.201249	0.257917	-0.206429	0	0	-0.176255	0.0868384	-0.00859784	-0.171275	-0.308129	0.093569	0.854883	1.5708	0	0	0.198164	-0.251955	0.429096	0.719647	1.5708	0	0
0.85	-0.630306	1.48817	-0.840834	0.768642	1.29109	0.950641	0.407672	-0.0820197	-0.0789508	0.801889	-0.238961	0	0	-0.184136	-0.0450136	-0.200977	0.257379	-0.200916	0	0	-0.170871	0.0858979	-0.0123546	-0.165516	-0.308792	0.0997395	0.847917	1.5708	0	0	0.198771	-0.25397	0.418197	0.733998	1.5708	0	0
0.86	-0.684409	1.49568	-0.789741	0.768356	1.28275	0.948983	0.415993	-0.077848	-0.0693476	0.742023	-0.231993	0	0	-0.186036	-0.0432272	-0.200447	0.256989	-0.195333	0	0	-0.164135	0.0842446	-0.0154648	-0.160782	-0.308826	0.103898	0.841729	1.5708	0	0	0.199387	-0.255568	0.408746	0.747124	1.5708	0	0
0.87	-0.752234	1.5041	-0.725229	0.768028	1.27431	0.947117	0.423778	-0.0746671	-0.0602079	0.679852	-0.225561	0	0	-0.186936	-0.0405471	-0.199967	0.256968	-0.189548	0	0	-0.156061	0.081906	-0.017599	-0.15726	-0.308579	0.106629	0.836252	1.5708	0	0	0.200407	-0.256419	0.400931	0.758311	1.5708	0	0
0.88	-0.834951	1.51286	-0.645874	0.767701	1.26579	0.945121	0.430069	-0.0725084	-0.0518248	0.614862	-0.220266	0	0	-0.187399	-0.0371051	-0.199683	0.257505	-0.183649	0	0	-0.147585	0.0789424	-0.0191773	-0.15447	-0.308236	0.108481	0.831308	1.5708	0	0	0.201788	-0.256712	0.394429	0.768026	1.5708	0	0
0.89	-0.927197	1.52077	-0.556769	0.767329	1.25713	0.943125	0.432987	-0.0707736	-0.0450354	0.546333	-0.217522	0	0	-0.188987	-0.0335151	-0.198828	0.258016	-0.177856	0	0	-0.140099	0.075712	-0.0204016	-0.152195	-0.308163	0.111105	0.826913	1.5708	0	0	0.202834	-0.257679	0.388983	0.777731	1.5708	0	0
0.9	-1.01543	1.52712	-0.471392	0.766881	1.24834	0.941231	0.431669	-0.0688432	-0.0403502	0.474609	-0.219552	0	0	-0.192621	-0.0303092	-0.198404	0.258624	-0.172507	0	0	-0.134548	0.0726507	-0.0215489	-0.150044	-0.308418	0.114833	0.822985	1.5708	0	0	0.204204	-0.258564	0.384624	0.78633	1.5708	0	0
0.91	-1.08407	1.53187	-0.405011	0.766425	1.2394	0.939482	0.426215	-0.0669063	-0.0379227	0.402165	-0.225583	0	0	-0.19852	-0.0277131	-0.19834	0.259273	-0.167802	0	0	-0.131132	0.0702706	-0.0228483	-0.148143	-0.308189	0.116385	0.819776	1.5708	0	0	0.20581	-0.258698	0.380355	0.793158	1.5708	0	0
0.92	-1.1215	1.53522	-0.36904	0.76597	1.23038	0.937864	0.41789	-0.0650143	-0.0383107	0.332735	-0.233284	0	0	-0.206254	-0.0259876	-0.19832	0.260365	-0.163635	0	0	-0.130051	0.068476	-0.0244077	-0.146309	-0.307751	0.117136	0.816747	1.5708	0	0	0.207981	-0.258706	0.377331	0.799008	1.5708	0	0
0.93	-1.11562	1.53698	-0.375301	0.765521	1.22126	0.936388	0.407252	-0.0626667	-0.0414961	0.269145	-0.240525	0	0	-0.215599	-0.0256264	-0.198721	0.262571	-0.159664	0	0	-0.131122	0.0677269	-0.0262378	-0.144754	-0.307741	0.118277	0.814342	1.5708	0	0	0.210925	-0.258317	0.375626	0.803147	1.5708	0	0
0.94	-1.06234	1.53713	-0.42773	0.765131	1.21202	0.935044	0.395005	-0.0599269	-0.0471159	0.214248	-0.245876	0	0	-0.226538	-0.0266058	-0.199722	0.265904	-0.155735	0	0	-0.134343	0.0680256	-0.0287696	-0.143468	-0.30817	0.119745	0.812829	1.5708	0	0	0.21421	-0.257518	0.374726	0.805992	1.5708	0	0
0.95	-0.974273	1.53597	-0.513814	0.764777	1.20263	0.93377	0.382578	-0.0573806	-0.0549723	0.170592	-0.249688	0	0	-0.238631	-0.0285392	-0.201453	0.270447	-0.151755	0	0	-0.139195	0.0689641	-0.0321391	-0.142425	-0.308333	0.119953	0.811959	1.5708	0	0	0.217354	-0.256497	0.374122	0.807937	1.5708	0	0
0.96	-0.847286	1.53168	-0.637525	0.764479	1.19313	0.932823	0.368863	-0.0543355	-0.0659679	0.140543	-0.25264	0	0	-0.253736	-0.0324299	-0.203818	0.275243	-0.148568	0	0	-0.147366	0.0716752	-0.0360613	-0.141362	-0.309037	0.120608	0.811608	1.5708	0	0	0.221071	-0.254768	0.374056	0.808077	1.5708	0	0
0.97	-0.74675	1.52707	-0.734427	0.764183	1.18354	0.931883	0.358974	-0.0520114	-0.0757289	0.128372	-0.252301	0	0	-0.268303	-0.0365259	-0.20618	0.28076	-0.146317	0	0	-0.155351	0.074474	-0.0400704	-0.140624	-0.310173	0.12202	0.811686	1.5708	0	0	0.224433	-0.252471	0.373903	0.806873	1.5708	0	0
0.98	-0.672301	1.52258	-0.805018	0.763918	1.17388	0.931003	0.353024	-0.050109	-0.0827125	0.132271	-0.249919	0	0	-0.281974	-0.0407574	-0.207964	0.286553	-0.145086	0	0	-0.162801	0.0773408	-0.044485	-0.139769	-0.311143	0.122934	0.811776	1.5708	0	0	0.226989	-0.249841	0.373339	0.804653	1.5708	0	0
0.99	-0.621464	1.51835	-0.852388	0.763561	1.16418	0.930197	0.350849	-0.0480137	-0.0862084	0.150265	-0.245277	0	0	-0.294327	-0.0452397	-0.209543	0.293215	-0.144384	0	0	-0.169561	0.0803458	-0.0484601	-0.138934	-0.312396	0.124368	0.811909	1.5708	0	0	0.228817	-0.246874	0.372313	0.80135	1.5708	0	0
1	-0.608263	1.51598	-0.863082	0.762989	1.15437	0.929325	0.354073	-0.0455324	-0.0847598	0.181244	-0.237103	0	0	-0.303477	-0.0497062	-0.211301	0.300707	-0.144273	0	0	-0.173334	0.0831528	-0.0517759	-0.138073	-0.313419	0.126034	0.811433	1.5708	0	0	0.22929	-0.243589	0.370632	0.796929	1.5708	0	0
1.01	-0.634579	1.51603	-0.835148	0.762207	1.14431	0.928326	0.362029	-0.0425717	-0.0790479	0.221282	-0.226131	0	0	-0.308824	-0.0542837	-0.213256	0.309524	-0.144427	0	0	-0.172756	0.0857097	-0.0544542	-0.137672	-0.314867	0.130269	0.809835	1.5708	0	0	0.228217	-0.239901	0.368585	0.790723	1.5708	0	0
1.02	-0.68591	1.51676	-0.782022	0.761332	1.13394	0.9274	0.370093	-0.0386899	-0.072374	0.262655	-0.21808	0	0	-0.312508	-0.0596784	-0.21505	0.319118	-0.145633	0	0	-0.169588	0.0886624	-0.0577717	-0.137342	-0.315884	0.134525	0.807261	1.5708	0	0	0.225317	-0.236137	0.365952	0.783367	1.5708	0	0
1.03	-0.743549	1.51657	-0.720617	0.760508	1.12312	0.926718	0.374088	-0.0340206	-0.0699301	0.298827	-0.213022	0	0	-0.316498	-0.0667485	-0.216075	0.328866	-0.148287	0	0	-0.1656	0.0924403	-0.063285	-0.137507	-0.316156	0.138141	0.804288	1.5708	0	0	0.220368	-0.233037	0.363387	0.775972	1.5708	0	0
1.04	-0.80924	1.51522	-0.648916	0.75977	1.11179	0.926306	0.372955	-0.0281172	-0.0721213	0.324423	-0.20584	0	0	-0.320214	-0.0758681	-0.216209	0.339431	-0.152649	0	0	-0.160624	0.0974474	-0.0716867	-0.137686	-0.315905	0.1422	0.800429	1.5708	0	0	0.213236	-0.230266	0.360326	0.76838	1.5708	0	0
1.05	-0.861749	1.51243	-0.590126	0.75897	1.10027	0.926242	0.366274	-0.0206074	-0.0742953	0.334723	-0.20181	0	0	-0.324537	-0.0861721	-0.216032	0.350979	-0.158812	0	0	-0.156587	0.103245	-0.0807496	-0.13738	-0.315491	0.146625	0.796013	1.5708	0	0	0.20502	-0.227548	0.356526	0.760473	1.5708	0	0
1.06	-0.897731	1.50909	-0.548358	0.758053	1.08865	0.926441	0.35608	-0.0129158	-0.0739129	0.331853	-0.209625	0	0	-0.328577	-0.0965954	-0.215643	0.364377	-0.166733	0	0	-0.15347	0.108946	-0.0891828	-0.137228	-0.315005	0.150893	0.792059	1.5708	0	0	0.196071	-0.224664	0.351873	0.752366	1.5708	0	0
1.07	-0.918995	1.50613	-0.521595	0.757065	1.07679	0.926793	0.3438	-0.00638584	-0.0725327	0.321405	-0.231123	0	0	-0.331708	-0.106376	-0.214895	0.379757	-0.176769	0	0	-0.150491	0.113627	-0.0972341	-0.137755	-0.313666	0.152857	0.788917	1.5708	0	0	0.186009	-0.222236	0.347392	0.74472	1.5708	0	0
1.08	-0.919989	1.50272	-0.514949	0.756066	1.06464	0.92741	0.328566	-0.000174583	-0.074845	0.308647	-0.261086	0	0	-0.335152	-0.116177	-0.212917	0.396578	-0.190247	0	0	-0.148319	0.117838	-0.10503	-0.139267	-0.312011	0.153913	0.786315	1.5708	0	0	0.17497	-0.219864	0.343133	0.737235	1.5708	0	0
1.09	-0.913599	1.49867	-0.51676	0.754998	1.05237	0.928315	0.312501	0.00702727	-0.0792814	0.299941	-0.284232	0	0	-0.338324	-0.125932	-0.209378	0.415138	-0.205243	0	0	-0.146784	0.122246	-0.110922	-0.141677	-0.310599	0.154172	0.784473	1.5708	0	0	0.163971	-0.217241	0.339911	0.72885	1.5708	0	0
1.1	-0.914385	1.4942	-0.513381	0.7538	1.04009	0.929465	0.298124	0.0151146	-0.0823303	0.298143	-0.297861	0	0	-0.339617	-0.135476	-0.204701	0.43659	-0.220902	0	0	-0.145142	0.127318	-0.114392	-0.144294	-0.309381	0.152984	0.783372	1.5708	0	0	0.153854	-0.213214	0.335882	0.718627	1.5708	0	0
